<svg xmlns="http://www.w3.org/2000/svg" viewBox="0 0 38.63 17.84"><defs><style>.cls-1{fill:#d7372b;}.cls-2{fill:#8129bb;}.cls-3{fill:#fff;}</style></defs><g id="Layer_2" data-name="Layer 2"><g id="Layer_1-2" data-name="Layer 1"><rect class="cls-1" width="17.84" height="17.84" rx="1.55"/><rect class="cls-2" x="20.79" width="17.84" height="17.84" rx="1.55"/><rect class="cls-3" x="1.93" y="3.88" width="10.08" height="10.08" rx="1.19"/><polygon class="cls-3" points="10.74 10.03 15.91 13.03 15.91 5.08 10.74 8.08 10.74 10.03"/><path class="cls-3" d="M30.91,2.11l1.23,2.48a1.32,1.32,0,0,0,1,.74l2.74.4A1.34,1.34,0,0,1,36.63,8l-2,1.93a1.33,1.33,0,0,0-.39,1.18l.47,2.73a1.35,1.35,0,0,1-1.95,1.42L30.34,14a1.32,1.32,0,0,0-1.25,0l-2.45,1.29a1.35,1.35,0,0,1-1.95-1.42l.47-2.73A1.33,1.33,0,0,0,24.77,10L22.79,8a1.34,1.34,0,0,1,.75-2.29l2.73-.4a1.32,1.32,0,0,0,1-.74l1.23-2.48A1.34,1.34,0,0,1,30.91,2.11Z"/></g></g></svg>